<svg xmlns="http://www.w3.org/2000/svg" width="24" height="24" viewBox="0 0 24 24">
  <!-- Outer circle -->
  <circle cx="12" cy="12" r="10" fill="none" stroke="currentColor" stroke-width="1.5"/>
  
  <!-- Network nodes -->
  <circle cx="12" cy="12" r="2.5" fill="currentColor"/>
  <circle cx="12" cy="4" r="1.5" fill="currentColor"/>
  <circle cx="20" cy="12" r="1.5" fill="currentColor"/>
  <circle cx="12" cy="20" r="1.5" fill="currentColor"/>
  <circle cx="4" cy="12" r="1.5" fill="currentColor"/>
  
  <!-- Additional nodes at diagonals -->
  <circle cx="17.5" cy="6.5" r="1.2" fill="currentColor"/>
  <circle cx="17.5" cy="17.5" r="1.2" fill="currentColor"/>
  <circle cx="6.5" cy="17.5" r="1.2" fill="currentColor"/>
  <circle cx="6.5" cy="6.5" r="1.2" fill="currentColor"/>
  
  <!-- Connection lines -->
  <line x1="12" y1="6.5" x2="12" y2="9.5" stroke="currentColor" stroke-width="1.2"/>
  <line x1="14.5" y1="12" x2="17.5" y2="12" stroke="currentColor" stroke-width="1.2"/>
  <line x1="12" y1="14.5" x2="12" y2="17.5" stroke="currentColor" stroke-width="1.2"/>
  <line x1="9.5" y1="12" x2="6.5" y2="12" stroke="currentColor" stroke-width="1.2"/>
  
  <!-- Diagonal connections -->
  <line x1="13.5" y1="10.5" x2="16" y2="8" stroke="currentColor" stroke-width="1"/>
  <line x1="13.5" y1="13.5" x2="16" y2="16" stroke="currentColor" stroke-width="1"/>
  <line x1="10.5" y1="13.5" x2="8" y2="16" stroke="currentColor" stroke-width="1"/>
  <line x1="10.5" y1="10.5" x2="8" y2="8" stroke="currentColor" stroke-width="1"/>
</svg>