<svg xmlns="http://www.w3.org/2000/svg" width="50" height="100" viewBox="0 0 50 100" fill="none">
  <style>
    .bg { fill: #001135; }
    .fg { fill: none; stroke: #FFFFFF; stroke-width: 1.67; stroke-linecap: round; stroke-linejoin: round; stroke-miterlimit: 10; }
    .divider { stroke: #FFFFFF; stroke-width: 2; }
  </style>

  <!-- Background -->
  <rect width="100" height="100" class="bg"/>

  <!-- FIREWALL (top half) -->
  <g transform="translate(0, 0)">
    <rect x="8.33" y="8.33" width="33.33" height="33.33" class="fg"/>
    <line x1="8.33" y1="19.92" x2="41.67" y2="19.92" class="fg"/>
    <line x1="8.33" y1="30.08" x2="41.67" y2="30.08" class="fg"/>
    <line x1="16.67" y1="8.33" x2="16.67" y2="19.92" class="fg"/>
    <line x1="25" y1="8.33" x2="25" y2="19.92" class="fg"/>
    <line x1="33.33" y1="8.33" x2="33.33" y2="19.92" class="fg"/>
    <line x1="12.5" y1="19.92" x2="12.5" y2="30.08" class="fg"/>
    <line x1="21" y1="19.92" x2="21" y2="30.08" class="fg"/>
    <line x1="29" y1="19.92" x2="29" y2="30.08" class="fg"/>
    <line x1="37.5" y1="19.92" x2="37.5" y2="30.08" class="fg"/>
    <line x1="16.67" y1="30.08" x2="16.67" y2="41.67" class="fg"/>
    <line x1="25" y1="30.08" x2="25" y2="41.67" class="fg"/>
    <line x1="33.33" y1="30.08" x2="33.33" y2="41.67" class="fg"/>
  </g>

  <!-- Divider Line -->
  <line x1="6" y1="50" x2="44" y2="50" class="divider"/>

  <!-- ROUTER (bottom half) -->
  <g transform="translate(0, 50)">
    <path d="M29.9,8.2V20h11.67" class="fg"/>
    <path d="M38,16.04l3.12,3.17c0.54,0.54,0.54,1.29,0,1.79L38,24.17" class="fg"/>
    <path d="M8.33,19.92h11.83v-11.67" class="fg"/>
    <path d="M16.17,11.79l3.17,-3.12c0.54,-0.54,1.29,-0.54,1.79,0l3.21,3.17" class="fg"/>
    <path d="M20,41.79V30H8.33" class="fg"/>
    <path d="M11.88,33.96L8.75,30.79c-0.54,-0.54,-0.54,-1.29,0,-1.79l3.17,-3.21" class="fg"/>
    <path d="M41.67,29.96H29.83v11.67" class="fg"/>
    <path d="M33.83,38.08l-3.17,3.12c-0.54,0.54,-1.29,0.54,-1.79,0l-3.21,-3.17" class="fg"/>
  </g>
</svg>
